<?xml version="1.0" ?><svg data-name="Layer 1" id="Layer_1" viewBox="0 0 64 64" xmlns="http://www.w3.org/2000/svg"><circle cx="18" cy="13" r="7"/><path d="M61,2H9c-.55,0-1,.45-1,1V22.28c-.43,.38-.83,.79-1.18,1.25-1.97,2.59-4.4,7.34-4.77,15.31-.04,.83,.26,1.62,.83,2.23,.57,.6,1.37,.94,2.2,.94,1.55,0,2.85-1.18,3.02-2.75,.27-2.62,1.1-5.32,1.9-7.47v9.22c0,.55,.45,1,1,1v19c0,.55,.45,1,1,1h4c.5,0,.93-.38,.99-.88l1.01-8.06,1.01,8.06c.06,.5,.49,.88,.99,.88h4c.55,0,1-.45,1-1v-19c.55,0,1-.45,1-1v-3H61c.55,0,1-.45,1-1V3c0-.55-.45-1-1-1ZM23,60h-2.12l-1.89-15.12c-.06-.5-.49-.88-.99-.88s-.93,.38-.99,.88l-1.89,15.12h-2.12v-18h10v18Zm37-24H26v-7.27c0-.49,.37-.92,.86-.99l10.44-1.49c1.54-.22,2.7-1.56,2.7-3.11,0-1.73-1.41-3.14-3.14-3.14H13.97c-1.39,0-2.75,.33-3.97,.93V4H60V36Z"/><rect height="6" rx="1" ry="1" width="6" x="52" y="6"/><rect height="6" rx="1" ry="1" width="6" x="52" y="28"/><circle cx="55" cy="20" r="3"/><rect height="2" width="6" x="40" y="6"/><rect height="2" width="10" x="40" y="10"/><rect height="2" width="4" x="42" y="17"/><rect height="2" width="8" x="42" y="21"/><rect height="2" width="6" x="40" y="28"/><rect height="2" width="10" x="40" y="32"/></svg>